<svg xmlns="http://www.w3.org/2000/svg" version="1.1" width="600px" height="600px" viewBox="0 0 200 200" style="overflow:hidden!important;"><g id="svga-group-wrapper"><g id="svga-group-backs-single"></g><g id="svga-group-humanwrap-move" transform="matrix(1,0,0,1,0,0)"><g id="svga-group-humanwrap"><g id="svga-group-hair-back-move" transform="matrix(1,0,0,1,0,0)"><g id="svga-group-hair-back"></g></g><g id="svga-group-humanbody-back"><path id="SvgjsPath13618" d="m170 180.3-27.3-6.9-18-9.9-1.5-28.2H76.8l-1.5 28.2-18 9.9-27.3 6.9-9.1 19.7-3 20h164.2l-3-20z" fill="#ebaa82" stroke-width="none" opacity="1"></path><path id="SvgjsPath13619" d="m76.8 135.3-1.5 28.2-18 9.9-27.3 6.9-9.1 19.7-3 20h14.6v-20l2.7-17.7 23.8-6.4 24.7-8.3 3.5-32.3z" fill="#cc7b48" stroke-width="none" opacity="1"></path></g><g id="svga-group-chinshadow-single"><path id="SvgjsPath13614" d="m112.9 157.7 10.7-14.9-.4-7.5H76.8l-.8 14.8 5.5 7.6 6.2 3.5h19z" fill="#bd6630" stroke-width="none" opacity="1"></path></g><g id="svga-group-humanbody-front"><path id="SvgjsPath13620" d="m92.8 168.3 2 7.9 6.9 4.6s-8.5-3-8.7-3.6c-.2-.6-.2-8.9-.2-8.9z" fill="#cc7b48" stroke-width="none" opacity="1"></path></g><g id="svga-group-clothes-single"><path id="SvgjsPath13494" d="m69.5 182.7 18.5 17 12.3 8.5 13.9-8.9 21-19.1V220H70.6z" fill="#ededed" stroke-width="none" opacity="1"></path><path id="SvgjsPath13495" d="m80.1 220-4.6-31.8-6-5.5.7 22.9 6.2 14.4z" fill="#d8d8d8" stroke-width="none" opacity="1"></path><path id="SvgjsPath13496" d="m75.3 163.5.6-11.1-23.3 15.9 1.3 1.1L26 180.2l-3.1.9-3.6 18.9-3.1 20h62l-6.8-40 3.9-16.5zM183.9 220l-3.1-20-3.7-18.9-3.1-.9-27.8-10.8 1.3-1.1-23.3-15.9.6 11.1 4 16.5-6.8 40h61.9z" fill="#3f82a4" stroke-width="none" opacity="1"></path><path id="SvgjsPath13497" d="m45.7 189.1 17.6-16.9 7.3-8.5-9 8.3-9.1-3.7 1.3 1.1L26 180.2l-3.1.9-3.6 18.9-3.2 20h12.3l2.9-32.5 1.4 1.9s4.7 12.7 5.1 13.2c.3.5 3.6 16.9 3.6 16.9L39 201.7l-5.8-13.4-1.9-1.9.2-1.8 26.2-12.8 2.3 1.4-17.6 16.3 18.1 15.1 10 15.3h1.9l-9.8-17.2-16.9-13.6zM71 175.9l.4 4.1 4-16.5.6-10.6-2.2 2.6-2.8 20.4zm75.2-6.5 1.3-1.1-9.1 3.7-9-8.3 7.3 8.5 17.6 16.9-16.9 13.7-9.8 17.2h1.9l10-15.3 18.1-15.1-17.6-16.3 6.2-3.9zm20.5 19-5.8 13.4-2.4 17.8s3.2-16.4 3.6-16.9 5.1-13.2 5.1-13.2l5.6-7.3-6.1 6.2zM129 175.9l-2.7-20.3-2.2-2.6.6 10.6 4 16.5.3-4.2z" fill="#2a7195" stroke-width="none" opacity="1"></path><path id="SvgjsPath13498" d="m149.3 188.7-15.1 13s-6.8 16.2-6.8 16.8 8.5-16 8.5-16l16.6-13.4-21.1-21.7 17.9 21.3zm-10.2-17.8 6-3-16.6-11.3 14.1 11.1-3.5 3.2zm31.1 10.4-5.3 4.9-3.6 10.9 4.9-10 7.2-6.2s-25.8-9.4-26.4-9.4l23.2 9.8zm5.7 2.1L177 200l4.9 17.2-6-33.8zm-105.8-16-3.4 12.1L76.9 219l-7.5-39 .7-12.6zm-8.1 7.3-14.7 14.1 15.5 12.3-12.4-11.5L62 174.7z" fill="#5794b3" stroke-width="none" opacity="1"></path></g><g id="svga-group-head" transform="matrix(1,0,0,1,0,0)"><g id="svga-group-ears-left-move" transform="matrix(1,0,0,1,0,0)"><g id="svga-group-ears-left"><path id="SvgjsPath13514" d="M60.9 93s-5.5-3-7.7-3.9c0 0-3.9 5.4-5.1 7.2 0 0 3.1 14.7 3.9 17.3l5 6.5 5.4-1.7 4.2-14.2L60.9 93z" fill="#ebaa82" stroke-width="none" opacity="1"></path><path id="SvgjsPath13515" d="M58.8 104.7c-.2-.4-6-10-6-10l-2.3 7.9 2.6-2.4 1.6 2.9s-.3 5-.2 5.5c0 .5 2.4 4.3 2.4 4.3l1.9-8.2z" fill="#cc7b48" stroke-width="none" opacity="1"></path><path id="SvgjsPath13516" d="m58.4 98-5.2-8.9c2.2.9 7.7 1.8 7.7 1.8l5.7 13.3-4.2 14.2-5.4 1.7 3.6-3.4L58.4 98z" fill="#dc9164" stroke-width="none" opacity="1"></path></g></g><g id="svga-group-ears-right-move" transform="matrix(1,0,0,1,0,0)"><g id="svga-group-ears-right"><path id="SvgjsPath13517" d="M139.1 93s5.5-3 7.7-3.9c0 0 3.9 5.4 5.1 7.2 0 0-3.1 14.7-3.9 17.3l-5 6.5-5.4-1.7-4.2-14.2 5.7-11.2z" fill="#ebaa82" stroke-width="none" opacity="1"></path><path id="SvgjsPath13518" d="M141.2 104.7c.2-.4 6-10 6-10l2.3 7.9-2.6-2.4-1.6 2.9s.3 5 .2 5.5c0 .5-2.4 4.3-2.4 4.3l-1.9-8.2z" fill="#cc7b48" stroke-width="none" opacity="1"></path><path id="SvgjsPath13519" d="m141.6 98 5.2-8.9c-2.2.9-7.7 1.8-7.7 1.8l-5.7 13.3 4.2 14.2 5.4 1.7-3.6-3.4 2.2-18.7z" fill="#dc9164" stroke-width="none" opacity="1"></path></g></g><g id="svga-group-faceshape-wrap"><g id="svga-group-faceshape-single"><path id="SvgjsPath13600" d="M138.1 60c-6.9-11.6-19.7-19.5-19.7-19.5-7.2-1.5-18.4-2.3-18.4-2.3s-11.1.8-18.4 2.3c0 0-12.8 7.9-19.7 19.5 0 0-5.1 14.5-5.3 24.8l1 29.9 26.7 37.4 6.2 3.5h19l6.2-3.5 26.7-37.4 1-29.9c-.2-10.3-5.3-24.8-5.3-24.8z" fill="#ebaa82" stroke-width="none" opacity="1"></path><path id="SvgjsPath13601" d="m91 153.7-4.9-5.3-22-36.1-1.3-25.6 3.3-23.3L82.5 44l17.4-3.6 18.5.1c-7.2-1.5-18.4-2.3-18.4-2.3s-11.1.8-18.4 2.3c0 0-12.8 7.9-19.7 19.5 0 0-5.1 14.5-5.3 24.8l1 29.9 26.7 37.4 6.2 3.5h19l6.2-3.5-8.6 1.5-16.1.1z" fill="#cc7b48" stroke-width="none" opacity="1"></path></g></g><g id="svga-group-mouth-single-move" transform="matrix(1,0,0,1,0,0)"><g id="svga-group-mouth-single"><path id="SvgjsPath13697" d="m82.7 123.9 1.5 4.2 10.2 9.1 13.4.1 8.6-8.4 1.1-5.2-17.4 4.4z" fill="#000000" stroke-width="none" opacity="1" transform="translate(0 2)"></path><path id="SvgjsPath13698" d="m100.1 128.1-17.4-4.2 1.9 4.1 15.4 3.5 16.1-2.8 1.4-5z" fill="#ffffff" stroke-width="none" opacity="1" transform="translate(0 2)"></path><path id="SvgjsPath13699" d="m81.8 123.6 18.3 4.8 18.8-5-19 3.3z" fill="#da7c87" stroke-width="none" opacity="1" transform="translate(0 2)"></path><path id="SvgjsPath13700" d="m117.4 121.1 1 2.4.2 2.7.7-2.4-.9-2.3-1-.4zm-34.9.5-.9 2.3.7 2.4.2-2.7 1-2.4-1 .4z" fill="#dc9164" stroke-width="none" opacity="1" transform="translate(0 2)"></path><path id="SvgjsPath13701" d="M96.6 140.1s1.4.8 1.6.8c.2 0 6.4-.1 6.4-.1l.7-.9-8.7.2z" fill="#cc7b48" stroke-width="none" opacity="1" transform="translate(0 2)"></path></g></g><g id="svga-group-eyes-left-move" transform="matrix(1,0,0,1,0,0)"><g id="svga-group-eyes-left"><g id="svga-group-eyesback-left"><path id="SvgjsPath13554" d="M89.9 95.9s-3.2-4.2-4.4-5.4l-7.6-.2s-3.9 3.4-5.6 5.9l4.5 5 8 .2s3.5-2.8 5.1-5.5z" fill="#ffffff" stroke-width="none" opacity="1"></path></g><g id="svga-group-eyesiriswrapper-left" transform="matrix(1,0,0,1,0,0)"><g id="svga-group-eyesiriscontrol-left" transform="matrix(1,0,0,1,0,0)"><g id="svga-group-eyesiris-left"><path id="SvgjsPath13635" d="m76.76 97.53-.81-3.95 2.22-3.37 3.94-.81 3.37 2.22.81 3.95-2.22 3.36-3.95.81z" fill="#ea02f5" stroke-width="none" opacity="1"></path><path id="SvgjsPath13636" d="m80 97.28-1.59-1.59v-2.24L80 91.87h2.24l1.58 1.58v2.24l-1.58 1.59z" fill="#000000" stroke-width="none" opacity="1"></path><path id="SvgjsPath13637" d="m85.71 91.46-3.55-2.34-4.16.85-2.34 3.55.85 4.16 3.55 2.34 4.16-.85 2.34-3.55-.85-4.16zm-4.66 5.99.22 1.79-.58.12v-1.91h.36zm.17 0h.39l.46 1.62-.63.13-.22-1.75zm.57 0h.42l.81 1.43-.78.16-.45-1.59zm.38-.35h-2.1l-1.48-1.48v-2.1l1.48-1.48h2.1l1.48 1.48v2.1l-1.48 1.48zm-4 1.04 1.11-1.34.26.26c-.26.52-.6 1.2-.75 1.49l-.62-.41zm.99-1.46-1.14 1.36-.54-.35 1.33-1.35.35.34zm.51.51.24.24-.28 1.67-.7-.46c.11-.2.32-.61.74-1.45zm-2.89-.88-.18-.86 1.64-.23v.41l-1.46.68zm1.46-1.78-1.85-.11-.12-.57 1.97.23v.45zm0 .18v.34l-1.67.23-.14-.68 1.81.11zm.11-1.44-1.63-.38.71-1.07 1.41.97-.49.48zm-.27-2.45c.17.18.57.53 1.45 1.28l-.57.57-1.44-.99.56-.86zm2.73.87c-.06-.38-.2-1.24-.27-1.7l.74-.15v1.85h-.47zm-.18 0h-.36l-.85-1.47.95-.2c.09.6.21 1.33.26 1.67zM84 93.77l1.58-.37.14.7-1.72.12v-.45zm0-.18v-.21l-.27-.27 1.55-1.2.27 1.33-1.55.35zm-.4-.61-.37-.37 1.29-1.31.67.44-1.59 1.24zm-.49-.49-.49-.49.73-1.47 1.02.67-1.26 1.29zm-.62-.62-.17-.17h-.27l.23-1.87.93.61-.72 1.43zm.7 4.7 1.25 1.32-.39.6-1.22-1.56.36-.36zm.13-.12.24-.24 1.49.78-.5.76-1.23-1.3zm.37-.37.31-.32v-.11c.34.09 1.04.29 1.62.46l-.47.72-1.46-.75zm.31-1.69 1.76-.11.13.64-1.89-.08v-.45zm-1.89-4.68-.25 1.98h-.42V89.8l.61-.13.06.04zm-2.87.55.83 1.43h-.14l-.28.28c-.54-.47-1.25-1.08-1.47-1.3l.15-.22.91-.19zm-2.63 2.78 1.63.38v.48l-2-.23-.01-.04.38-.59zm.2 3.45 1.47-.68.41.41-1.35 1.38-.34-.23-.19-.88zm2.98 2.72.29-1.76h.45v1.94l-.35.07-.39-.25zm3.41-.37-.82-1.46.33-.33 1.24 1.59-.04.06-.71.14zm2.51-2.88c-.58-.17-1.35-.39-1.72-.49v-.46l1.93.07.09.43-.3.45z" fill="#cd00d6" stroke-width="none" opacity="1"></path><path id="SvgjsPath13638" d="m80.63 91.91-.97-.29-.72.7.23.97.97.29.72-.7z" fill="#ffffff" stroke-width="none" opacity="1"></path><path id="SvgjsPath13639" d="m82.79 96.11-.59-.34-.59.34v.68l.59.34.59-.34z" fill="#ffffff" stroke-width="none" opacity="1"></path></g></g></g><g id="svga-group-eyesfront-left"><path id="SvgjsPath13562" d="M67.1 89.3v11.9l7.9 8.4h11.2l7.9-8.4V89.3l-7.9-8.4H75l-7.9 8.4zm5.2 6.9c1.8-2.5 5.6-5.9 5.6-5.9l7.6.2c1.2 1.2 4.4 5.4 4.4 5.4-1.6 2.7-5.1 5.5-5.1 5.5l-8-.2-4.5-5z" fill="#ebaa82" stroke-width="none" opacity="1"></path><path id="SvgjsPath13563" d="M90.5 96.7 85.3 91l-7.2-.4s-5.1 4.8-6.9 6.9l3.2-4.7 3.2-3.1 8.4.3 4.5 6.7z" fill="#782c76" stroke-width="none" opacity="1"></path><path id="SvgjsPath13564" d="m90.2 93.8-4.6-6.6-8.3-.4s-4.4 5.4-6.3 8.9c0 0 2.7-5.8 5.7-9.2l9.3.2 4.2 7.1z" fill="#dc9164" stroke-width="none" opacity="1"></path></g></g></g><g id="svga-group-eyes-right-move" transform="matrix(1,0,0,1,0,0)"><g id="svga-group-eyes-right"><g id="svga-group-eyesback-right"><path id="SvgjsPath13555" d="M110.1 95.9s3.2-4.2 4.4-5.4l7.6-.2s3.9 3.4 5.6 5.9l-4.5 5-8 .2s-3.5-2.8-5.1-5.5z" fill="#ffffff" stroke-width="none" opacity="1"></path></g><g id="svga-group-eyesiriswrapper-right" transform="matrix(1,0,0,1,0,0)"><g id="svga-group-eyesiriscontrol-right" transform="matrix(1,0,0,1,0,0)"><g id="svga-group-eyesiris-right"><path id="SvgjsPath13640" d="m114.52 97.53-.81-3.95 2.22-3.37 3.95-.81 3.36 2.22.81 3.95-2.22 3.36-3.94.81z" fill="#ea02f5" stroke-width="none" opacity="1"></path><path id="SvgjsPath13641" d="m117.76 97.28-1.58-1.59v-2.24l1.58-1.58H120l1.59 1.58v2.24L120 97.28z" fill="#000000" stroke-width="none" opacity="1"></path><path id="SvgjsPath13642" d="m123.47 91.46-3.55-2.34-4.16.85-2.34 3.55.85 4.16 3.55 2.34 4.16-.85 2.34-3.55-.85-4.16zm-4.66 5.99.22 1.79-.58.12v-1.91h.36zm.18 0h.39l.46 1.62-.63.13-.22-1.75zm.57 0h.42l.81 1.43-.78.16-.45-1.59zm.37-.35h-2.1l-1.48-1.48v-2.1l1.48-1.48h2.1l1.48 1.48v2.1l-1.48 1.48zm-4 1.04 1.11-1.34.26.26c-.26.52-.6 1.2-.75 1.49l-.62-.41zm.99-1.46-1.14 1.36-.54-.35 1.33-1.35.35.34zm.51.51.24.24-.28 1.67-.7-.46c.12-.2.32-.61.74-1.45zm-2.89-.88-.18-.86 1.64-.23v.41l-1.46.68zm1.46-1.78-1.85-.11-.12-.57 1.97.23v.45zm0 .18v.34l-1.67.23-.14-.68 1.81.11zm.11-1.44-1.63-.38.71-1.07 1.41.97-.49.48zm-.27-2.45c.17.18.57.53 1.45 1.28l-.57.57-1.44-.99.56-.86zm2.73.87c-.06-.38-.2-1.24-.27-1.7l.74-.15v1.85h-.47zm-.18 0h-.36l-.85-1.47.95-.2c.09.6.21 1.33.26 1.67zm3.37 2.08 1.58-.37.14.7-1.72.11v-.44zm0-.18v-.21l-.27-.27 1.55-1.2.27 1.33-1.55.35zm-.4-.61-.37-.37 1.29-1.31.67.44-1.59 1.24zm-.49-.49-.49-.49.73-1.47 1.02.67-1.26 1.29zm-.62-.62-.17-.17h-.27l.23-1.87.93.61-.72 1.43zm.71 4.7 1.25 1.32-.39.6-1.22-1.56.36-.36zm.12-.12.24-.24 1.49.78-.5.76-1.23-1.3zm.37-.37.31-.31v-.11c.34.09 1.04.29 1.62.46l-.47.72-1.46-.76zm.31-1.69 1.76-.11.13.64-1.89-.07v-.46zm-1.88-4.68-.25 1.98h-.42V89.8l.61-.13.06.04zm-2.88.55.83 1.43h-.14l-.28.28c-.54-.47-1.25-1.08-1.47-1.3l.15-.22.91-.19zm-2.62 2.78 1.63.38v.48l-2-.23-.01-.04.38-.59zm.19 3.45 1.47-.68.41.41-1.35 1.38-.34-.23-.19-.88zm2.98 2.72.29-1.76h.45v1.94l-.35.07-.39-.25zm3.41-.37-.82-1.46.33-.33 1.24 1.59-.04.06-.71.14zm2.52-2.88c-.58-.17-1.35-.39-1.72-.49v-.46l1.93.07.09.43-.3.45z" fill="#cd00d6" stroke-width="none" opacity="1"></path><path id="SvgjsPath13643" d="m118.39 91.91-.96-.29-.73.7.24.97.96.29.73-.7z" fill="#ffffff" stroke-width="none" opacity="1"></path><path id="SvgjsPath13644" d="m120.55 96.11-.59-.34-.59.34v.68l.59.34.59-.34z" fill="#ffffff" stroke-width="none" opacity="1"></path></g></g></g><g id="svga-group-eyesfront-right"><path id="SvgjsPath13565" d="M125 80.8h-11.2l-7.9 8.4v11.9l7.9 8.4H125l7.9-8.4V89.3l-7.9-8.5zm-1.8 20.4-8 .2s-3.5-2.8-5.1-5.5c0 0 3.2-4.2 4.4-5.4l7.6-.2s3.9 3.4 5.6 5.9l-4.5 5z" fill="#ebaa82" stroke-width="none" opacity="1"></path><path id="SvgjsPath13568" d="m109.5 96.7 5.2-5.7 7.2-.4s5.1 4.8 6.9 6.9l-3.2-4.7-3.2-3.1-8.4.3-4.5 6.7z" fill="#782c76" stroke-width="none" opacity="1"></path><path id="SvgjsPath13569" d="m109.8 93.8 4.6-6.6 8.3-.4s4.4 5.4 6.3 8.9c0 0-2.7-5.8-5.7-9.2l-9.3.2-4.2 7.1z" fill="#dc9164" stroke-width="none" opacity="1"></path></g></g></g><g id="svga-group-facehighlight-single"></g><g id="svga-group-eyebrows-left-move" transform="matrix(1,0,0,1,0,0)"><g id="svga-group-eyebrows-left-rotate" transform="matrix(1,1.7453292519943295e-9,-1.7453292519943295e-9,1,1.4472080067662318e-7,-1.348266778222751e-7)"><g id="svga-group-eyebrows-left"><path id="SvgjsPath13472" d="m86.58 80.32 4.71.67.11 4.45s-5.28.13-5.59.03-16.13-1-16.13-1l-6.57-.44 6.74-2.93 16.73-.78z" fill="#504543" stroke-width="none" opacity="1"></path><path id="SvgjsPath13473" d="m69.67 84.48-6.57-.44 3.32-.24-1.31-.64.77-.33 2.71.82.61-.04 4.25.3-3.68-2.77.07-.03.55-.03 4.45 2.93 1.1.08 7.2.63-3.56-4.07.49-.02 4.37 4.21 2.36.21-3.65-4.56 1.33-.06 3.07 2.74.87 2.02 2.96.26s-5.28.13-5.59.03c-.3-.11-16.12-1-16.12-1z" fill="#413230" stroke-width="none" opacity="1"></path></g></g></g><g id="svga-group-eyebrows-right-move" transform="matrix(1,0,0,1,0,0)"><g id="svga-group-eyebrows-right-rotate" transform="matrix(1,1.7453292519943295e-9,-1.7453292519943295e-9,1,1.4472080067662318e-7,-2.1423917928586889e-7)"><g id="svga-group-eyebrows-right"><path id="SvgjsPath13474" d="m113.42 80.32-4.71.67-.11 4.45s5.28.13 5.59.03 16.13-1 16.13-1l6.57-.44-6.74-2.93-16.73-.78z" fill="#504543" stroke-width="none" opacity="1"></path><path id="SvgjsPath13475" d="m130.33 84.48 6.57-.44-3.32-.24 1.31-.64-.77-.33-2.71.82-.61-.04-4.25.3 3.68-2.77-.07-.03-.55-.03-4.45 2.93-1.1.08-7.2.63 3.56-4.07-.49-.02-4.37 4.21-2.36.21 3.65-4.56-1.33-.06-3.07 2.74-.87 2.02-2.96.26s5.28.13 5.59.03c.3-.11 16.12-1 16.12-1z" fill="#413230" stroke-width="none" opacity="1"></path></g></g></g><g id="svga-group-beardwrap"><g id="svga-group-beard-single-move" transform="matrix(1,0,0,1,0,0)"><g id="svga-group-beard-single"></g></g></g><g id="svga-group-mustache-single-move" transform="matrix(1,0,0,1,0,0)"><g id="svga-group-mustache-single"></g></g><g id="svga-group-nose-single-move" transform="matrix(1,0,0,1,0,0)"><g id="svga-group-nose-single"><path id="SvgjsPath13680" d="m102.25 118.74-4.52.04-2.04-2.71-3.77.47-1.73-3.34 3.91-7.46h11.82l3.96 7.54-1.81 3.34-3.66-.78z" fill="#ebaa82" stroke-width="none" opacity="1" transform="translate(0 1)"></path><path id="SvgjsPath13681" d="m105.92 105.74 3.52 7.45-1.56 2.88-2.69-.21.21-.43 2.8-.96-3.42.21-2.7 3.73h-4.14l-2.7-3.73-3.42-.21 2.8.96.21.43-2.7.21-1.55-2.88 3.52-7.45-4.35 7.56 2.07 3.73 3.94-.54 1.97 2.67h4.56l1.97-2.67 3.94.54 2.07-3.73z" fill="#cc7b48" stroke-width="none" opacity="1" transform="translate(0 1)"></path><path id="SvgjsPath13682" d="m93.14 108.71 2.71 4.47 7.36.12-7.42.48z" fill="#cc7b48" stroke-width="none" opacity="1" transform="translate(0 1)"></path><path id="SvgjsPath13683" d="m95.31 107.2 2.06 4.71 5.92.18 1.61-5.13z" fill="#f3b792" stroke-width="none" opacity="1" transform="translate(0 1)"></path></g></g><g id="svga-group-hair-front"><path id="SvgjsPath13727" d="m137.1 88.7 5.4 5.4 1.3-7.1-1-16.6-3.4-12.5 1.4-10.8-7.4-10.5-8.2-9.4-16.2-3.4-16.9-2.7-16.9 10.8-11.8 13.5-8.1 10.8-2 17.3 1.1 14.6 4.9 4.1.7 3.6 7.1 2.7-2.3 5.7 3 3.1-.3-4.1 4.3-7.1-7.7-3.7 2-13.2L81 70.8l1-5.4-6.1-10.2 6.4-2 3.8 3h9.1l2-.3 5.7.7 5.8-1.7 6.7 3.4h7.2l3.3 2 4.8.3 5.7 10.5z" fill="#504543" stroke-width="none" opacity="1"></path><path id="SvgjsPath13728" d="m111.1 31.2-25 3-13.6 16 3.4 5.1 6.4-2 3.7 3h9.1l2-.3 5.8.7 5.7-1.7 6.8 3.4h7.1l4.7-11.5-16.1-15.7zm19.6 29.4 8.8-2.7-3 13.2-5.8-10.5zM64.6 74.4l11.6-5.2.2-4.1-11.1-10.3-.7-7 10.7-15.9-11.9 13.5-.2.2c-.5 3.1-1.2 7.5-1.2 7.5l5.7 7.2 2.1 8-7.2 4.3-2.7 7.3-3.8-6.1-2.2-7.3-.8 6.9L54.2 88l4.9 4.1L61.5 81l3.1-6.6z" fill="#483b39" stroke-width="none" opacity="1"></path><path id="SvgjsPath13729" d="M108.7 54.9s2.5-12.7 2.1-13.5c-.4-.9-7.2-7.2-7.2-7.2l-5.3-1.4-11.7 1.4c-.5.4-1.1.8-1.7 1.3L72.5 50.2l3.4 5.1 6.4-2 3.7 3h9.1l2-.3 5.8.7 5.8-1.8z" fill="#413230" stroke-width="none" opacity="1"></path><path id="SvgjsPath13730" d="M85.8 40.3s-3.8 1.2-6.9 2.2l-6.5 7.6 3.4 5.1 6.4-2 3.7 3H95l2-.3c-.1-.5-1.9-8.2-1.9-8.2l-9.3-7.4z" fill="#31221f" stroke-width="none" opacity="1"></path><path id="SvgjsPath13731" d="m101.8 23.9-20.7 7-16.5 16.9.7 7 11 10.3-.3 3.5-11.4 5.8L59 91.1l1 4.7.2-4 4.6-14.9 13.4-6.7 1.5-4.5-9.3-9.9-1.2-8.5 13.4-15.4z" fill="#584f4e" stroke-width="none" opacity="1"></path></g><g id="svga-group-glasses-single-move" transform="matrix(1,0,0,1,0,0)"><g id="svga-group-glasses-single"></g></g></g></g></g><rect id="svga-credit-rect" width="200" height="15" x="0" y="185" fill="#ecf0f1" opacity="0.5" style="display: none;"></rect><text id="svga-credit-text" font-family="Avenir Next, Roboto, Helvetica, Arial, sans-serif" font-size="10px" text-anchor="start" font-weight="400" size="10px" anchor="start" weight="400" fill="#333333" x="33.40313720703125" y="182.60824728012085" style="display: none;"><tspan id="SvgjsTspan13466" dy="13" x="33.40313720703125">Created on AvatarMaker.com</tspan></text></g><defs id="SvgjsDefs13413"></defs></svg>